{
  "accessors": [
    {
      "bufferView": 2,
      "componentType": 5126,
      "count": 72,
      "max": [
        6.762189865112305,
        -0.7291379570960999,
        4.579285144805908
      ],
      "min": [
        -6.762189865112305,
        -2.4320778846740723,
        4.102785110473633
      ],
      "type": "VEC3"
    },
    {
      "bufferView": 2,
      "byteOffset": 864,
      "componentType": 5126,
      "count": 72,
      "max": [
        0.91783607006073,
        0.9178300499916077,
        1.0
      ],
      "min": [
        -0.9178361892700195,
        -0.9178265929222107,
        0.3969561755657196
      ],
      "type": "VEC3"
    },
    {
      "bufferView": 1,
      "componentType": 5126,
      "count": 72,
      "max": [
        0.773169994354248,
        0.6801599860191345
      ],
      "min": [
        0.6958699822425842,
        0.6132199764251709
      ],
      "type": "VEC2"
    },
    {
      "bufferView": 0,
      "componentType": 5125,
      "count": 240,
      "type": "SCALAR"
    },
    {
      "bufferView": 2,
      "byteOffset": 1728,
      "componentType": 5126,
      "count": 24,
      "max": [
        2.5315399169921875,
        -0.7576799988746643,
        16.121055603027344
      ],
      "min": [
        -2.5315399169921875,
        -1.5374900102615356,
        0.008779999800026417
      ],
      "type": "VEC3"
    },
    {
      "bufferView": 2,
      "byteOffset": 2016,
      "componentType": 5126,
      "count": 24,
      "max": [
        0.49241846799850464,
        0.9945218563079834,
        1.0
      ],
      "min": [
        -0.49242010712623596,
        0.0,
        -0.26185810565948486
      ],
      "type": "VEC3"
    },
    {
      "bufferView": 1,
      "byteOffset": 576,
      "componentType": 5126,
      "count": 24,
      "max": [
        0.9994999766349792,
        0.5
      ],
      "min": [
        0.0005000000237487257,
        0.02941000461578369
      ],
      "type": "VEC2"
    },
    {
      "bufferView": 0,
      "byteOffset": 960,
      "componentType": 5125,
      "count": 30,
      "type": "SCALAR"
    },
    {
      "bufferView": 2,
      "byteOffset": 2304,
      "componentType": 5126,
      "count": 42,
      "max": [
        2.273129940032959,
        -0.998520016670227,
        -0.007670000195503235
      ],
      "min": [
        -2.2736001014709473,
        -1.2587800025939941,
        -0.10672000050544739
      ],
      "type": "VEC3"
    },
    {
      "bufferView": 2,
      "byteOffset": 2808,
      "componentType": 5126,
      "count": 42,
      "max": [
        0.6056703329086304,
        0.6056696772575378,
        1.0
      ],
      "min": [
        -0.6056697964668274,
        -0.6056699752807617,
        -1.0
      ],
      "type": "VEC3"
    },
    {
      "bufferView": 1,
      "byteOffset": 768,
      "componentType": 5126,
      "count": 42,
      "max": [
        0.01785000041127205,
        0.6658400297164917
      ],
      "min": [
        0.002460000105202198,
        0.6352599859237671
      ],
      "type": "VEC2"
    },
    {
      "bufferView": 0,
      "byteOffset": 1080,
      "componentType": 5125,
      "count": 84,
      "type": "SCALAR"
    },
    {
      "bufferView": 2,
      "byteOffset": 3312,
      "componentType": 5126,
      "count": 6,
      "max": [
        -0.02521701343357563,
        -1.3236050605773926,
        15.607004165649414
      ],
      "min": [
        -0.4067169725894928,
        -1.36348295211792,
        15.227594375610352
      ],
      "type": "VEC3"
    },
    {
      "bufferView": 2,
      "byteOffset": 3384,
      "componentType": 5126,
      "count": 6,
      "max": [
        0.0,
        0.9945218563079834,
        -0.1045292541384697
      ],
      "min": [
        0.0,
        0.9945217370986938,
        -0.10452992469072342
      ],
      "type": "VEC3"
    },
    {
      "bufferView": 1,
      "byteOffset": 1104,
      "componentType": 5126,
      "count": 6,
      "max": [
        0.9994999766349792,
        0.5
      ],
      "min": [
        0.0005000000237487257,
        0.02941000461578369
      ],
      "type": "VEC2"
    },
    {
      "bufferView": 0,
      "byteOffset": 1416,
      "componentType": 5125,
      "count": 6,
      "type": "SCALAR"
    },
    {
      "bufferView": 2,
      "byteOffset": 3456,
      "componentType": 5126,
      "count": 12,
      "max": [
        -0.030410995706915855,
        -0.734950065612793,
        15.90510368347168
      ],
      "min": [
        -0.14644098281860352,
        -1.2581892013549805,
        15.096922874450684
      ],
      "type": "VEC3"
    },
    {
      "bufferView": 2,
      "byteOffset": 3600,
      "componentType": 5126,
      "count": 12,
      "max": [
        -0.9109535813331604,
        0.0,
        0.3533976674079895
      ],
      "min": [
        -1.0,
        -0.21278326213359833,
        -3.988706609447945e-08
      ],
      "type": "VEC3"
    },
    {
      "bufferView": 1,
      "byteOffset": 1152,
      "componentType": 5126,
      "count": 12,
      "max": [
        0.5090100169181824,
        0.9962999820709229
      ],
      "min": [
        0.4715299904346466,
        0.9914600253105164
      ],
      "type": "VEC2"
    },
    {
      "bufferView": 0,
      "byteOffset": 1440,
      "componentType": 5125,
      "count": 12,
      "type": "SCALAR"
    },
    {
      "bufferView": 2,
      "byteOffset": 3744,
      "componentType": 5126,
      "count": 656,
      "max": [
        4.135129928588867,
        -0.17744334042072296,
        17.453441619873047
      ],
      "min": [
        -4.135129928588867,
        -1.724850058555603,
        -1.8502000570297241
      ],
      "type": "VEC3"
    },
    {
      "bufferView": 2,
      "byteOffset": 11616,
      "componentType": 5126,
      "count": 656,
      "max": [
        1.0,
        0.9998958110809326,
        1.0
      ],
      "min": [
        -1.0,
        -0.9998957514762878,
        -1.0
      ],
      "type": "VEC3"
    },
    {
      "bufferView": 1,
      "byteOffset": 1248,
      "componentType": 5126,
      "count": 656,
      "max": [
        0.7046399712562561,
        0.9622300267219543
      ],
      "min": [
        0.010830000042915344,
        0.31053000688552856
      ],
      "type": "VEC2"
    },
    {
      "bufferView": 0,
      "byteOffset": 1488,
      "componentType": 5125,
      "count": 2388,
      "type": "SCALAR"
    },
    {
      "bufferView": 2,
      "byteOffset": 19488,
      "componentType": 5126,
      "count": 587,
      "max": [
        17.101900100708008,
        0.9289600253105164,
        3.52455997467041
      ],
      "min": [
        -17.101900100708008,
        -1.1295499801635742,
        -5.7067999839782715
      ],
      "type": "VEC3"
    },
    {
      "bufferView": 2,
      "byteOffset": 26532,
      "componentType": 5126,
      "count": 587,
      "max": [
        0.9999982118606567,
        0.9991773962974548,
        0.8846091628074646
      ],
      "min": [
        -0.9999982118606567,
        -0.9952202439308167,
        -1.0
      ],
      "type": "VEC3"
    },
    {
      "bufferView": 1,
      "byteOffset": 6496,
      "componentType": 5126,
      "count": 587,
      "max": [
        0.9057700037956238,
        0.9906799793243408
      ],
      "min": [
        0.06449999660253525,
        0.6420899629592896
      ],
      "type": "VEC2"
    },
    {
      "bufferView": 0,
      "byteOffset": 11040,
      "componentType": 5125,
      "count": 1320,
      "type": "SCALAR"
    },
    {
      "bufferView": 2,
      "byteOffset": 33576,
      "componentType": 5126,
      "count": 47,
      "max": [
        16.434120178222656,
        0.9174900054931641,
        1.5884699821472168
      ],
      "min": [
        6.173419952392578,
        -0.15789000689983368,
        -4.3053297996521
      ],
      "type": "VEC3"
    },
    {
      "bufferView": 2,
      "byteOffset": 34140,
      "componentType": 5126,
      "count": 47,
      "max": [
        0.9551079273223877,
        0.9967616200447083,
        0.8837427496910095
      ],
      "min": [
        -0.9999913573265076,
        -0.9851256012916565,
        -0.6640865802764893
      ],
      "type": "VEC3"
    },
    {
      "bufferView": 1,
      "byteOffset": 11192,
      "componentType": 5126,
      "count": 47,
      "max": [
        0.7501199841499329,
        0.9466800093650818
      ],
      "min": [
        0.10943000018596649,
        0.4716600179672241
      ],
      "type": "VEC2"
    },
    {
      "bufferView": 0,
      "byteOffset": 16320,
      "componentType": 5125,
      "count": 114,
      "type": "SCALAR"
    },
    {
      "bufferView": 2,
      "byteOffset": 34704,
      "componentType": 5126,
      "count": 47,
      "max": [
        -6.173659801483154,
        0.9174900054931641,
        1.5884599685668945
      ],
      "min": [
        -16.434349060058594,
        -0.15789000689983368,
        -4.3053297996521
      ],
      "type": "VEC3"
    },
    {
      "bufferView": 2,
      "byteOffset": 35268,
      "componentType": 5126,
      "count": 47,
      "max": [
        0.9999915361404419,
        0.9967615604400635,
        0.8837425708770752
      ],
      "min": [
        -0.9550988078117371,
        -0.9851292967796326,
        -0.6640569567680359
      ],
      "type": "VEC3"
    },
    {
      "bufferView": 1,
      "byteOffset": 11568,
      "componentType": 5126,
      "count": 47,
      "max": [
        0.8906099796295166,
        0.9466800093650818
      ],
      "min": [
        0.24991999566555023,
        0.4716600179672241
      ],
      "type": "VEC2"
    },
    {
      "bufferView": 0,
      "byteOffset": 16776,
      "componentType": 5125,
      "count": 114,
      "type": "SCALAR"
    },
    {
      "bufferView": 2,
      "byteOffset": 35832,
      "componentType": 5126,
      "count": 4902,
      "max": [
        17.1313533782959,
        8.408300399780273,
        20.532459259033203
      ],
      "min": [
        -17.1313533782959,
        -2.770090103149414,
        -23.666000366210938
      ],
      "type": "VEC3"
    },
    {
      "bufferView": 2,
      "byteOffset": 94656,
      "componentType": 5126,
      "count": 4902,
      "max": [
        1.0,
        1.0,
        1.0
      ],
      "min": [
        -1.0,
        -1.0,
        -1.0
      ],
      "type": "VEC3"
    },
    {
      "bufferView": 1,
      "byteOffset": 11944,
      "componentType": 5126,
      "count": 4902,
      "max": [
        0.997439980506897,
        0.9990100264549255
      ],
      "min": [
        0.0019600000232458115,
        0.002950012683868408
      ],
      "type": "VEC2"
    },
    {
      "bufferView": 0,
      "byteOffset": 17232,
      "componentType": 5125,
      "count": 12450,
      "type": "SCALAR"
    }
  ],
  "asset": {
    "extras": {
      "author": "OUTPISTON (https://sketchfab.com/outpiston)",
      "license": "CC-BY-NC-SA-4.0 (http://creativecommons.org/licenses/by-nc-sa/4.0/)",
      "source": "https://sketchfab.com/3d-models/airbus-a321-561c4002ed6c44b697195cdffb60e25c",
      "title": "Airbus A321"
    },
    "generator": "Sketchfab-16.74.0",
    "version": "2.0"
  },
  "bufferViews": [
    {
      "buffer": 0,
      "byteLength": 67032,
      "name": "floatBufferViews",
      "target": 34963
    },
    {
      "buffer": 0,
      "byteLength": 51160,
      "byteOffset": 67032,
      "byteStride": 8,
      "name": "floatBufferViews",
      "target": 34962
    },
    {
      "buffer": 0,
      "byteLength": 153480,
      "byteOffset": 118192,
      "byteStride": 12,
      "name": "floatBufferViews",
      "target": 34962
    }
  ],
  "buffers": [
    {
      "byteLength": 271672,
      "uri": "scene.bin"
    }
  ],
  "images": [
    {
      "uri": "textures/material02_baseColor.jpeg"
    }
  ],
  "materials": [
    {
      "name": "material02",
      "pbrMetallicRoughness": {
        "baseColorFactor": [
          0.588,
          0.588,
          0.588,
          1.0
        ],
        "baseColorTexture": {
          "index": 0
        },
        "metallicFactor": 0.0,
        "roughnessFactor": 0.0
      }
    },
    {
      "emissiveFactor": [
        1.0,
        1.0,
        1.0
      ],
      "name": "material04",
      "pbrMetallicRoughness": {
        "baseColorFactor": [
          0.588,
          0.588,
          0.588,
          1.0
        ]
      }
    },
    {
      "emissiveFactor": [
        1.0,
        1.0,
        1.0
      ],
      "name": "material00",
      "pbrMetallicRoughness": {
        "baseColorFactor": [
          0.588,
          0.588,
          0.588,
          1.0
        ],
        "baseColorTexture": {
          "index": 0
        }
      }
    },
    {
      "name": "material03",
      "pbrMetallicRoughness": {
        "baseColorFactor": [
          0.588,
          0.588,
          0.588,
          1.0
        ],
        "baseColorTexture": {
          "index": 0
        },
        "metallicFactor": 0.0
      }
    }
  ],
  "meshes": [
    {
      "name": "Object_0",
      "primitives": [
        {
          "attributes": {
            "NORMAL": 1,
            "POSITION": 0,
            "TEXCOORD_0": 2
          },
          "indices": 3,
          "material": 0,
          "mode": 4
        }
      ]
    },
    {
      "name": "Object_1",
      "primitives": [
        {
          "attributes": {
            "NORMAL": 5,
            "POSITION": 4,
            "TEXCOORD_0": 6
          },
          "indices": 7,
          "material": 1,
          "mode": 4
        }
      ]
    },
    {
      "name": "Object_2",
      "primitives": [
        {
          "attributes": {
            "NORMAL": 9,
            "POSITION": 8,
            "TEXCOORD_0": 10
          },
          "indices": 11,
          "material": 0,
          "mode": 4
        }
      ]
    },
    {
      "name": "Object_3",
      "primitives": [
        {
          "attributes": {
            "NORMAL": 13,
            "POSITION": 12,
            "TEXCOORD_0": 14
          },
          "indices": 15,
          "material": 1,
          "mode": 4
        }
      ]
    },
    {
      "name": "Object_4",
      "primitives": [
        {
          "attributes": {
            "NORMAL": 17,
            "POSITION": 16,
            "TEXCOORD_0": 18
          },
          "indices": 19,
          "material": 2,
          "mode": 4
        }
      ]
    },
    {
      "name": "Object_5",
      "primitives": [
        {
          "attributes": {
            "NORMAL": 21,
            "POSITION": 20,
            "TEXCOORD_0": 22
          },
          "indices": 23,
          "material": 3,
          "mode": 4
        }
      ]
    },
    {
      "name": "Object_6",
      "primitives": [
        {
          "attributes": {
            "NORMAL": 25,
            "POSITION": 24,
            "TEXCOORD_0": 26
          },
          "indices": 27,
          "material": 0,
          "mode": 4
        }
      ]
    },
    {
      "name": "Object_7",
      "primitives": [
        {
          "attributes": {
            "NORMAL": 29,
            "POSITION": 28,
            "TEXCOORD_0": 30
          },
          "indices": 31,
          "material": 0,
          "mode": 4
        }
      ]
    },
    {
      "name": "Object_8",
      "primitives": [
        {
          "attributes": {
            "NORMAL": 33,
            "POSITION": 32,
            "TEXCOORD_0": 34
          },
          "indices": 35,
          "material": 0,
          "mode": 4
        }
      ]
    },
    {
      "name": "Object_9",
      "primitives": [
        {
          "attributes": {
            "NORMAL": 37,
            "POSITION": 36,
            "TEXCOORD_0": 38
          },
          "indices": 39,
          "material": 0,
          "mode": 4
        }
      ]
    }
  ],
  "nodes": [
    {
      "children": [
        1
      ],
      "matrix": [
        1.0,
        0.0,
        0.0,
        0.0,
        0.0,
        2.220446049250313e-16,
        -1.0,
        0.0,
        0.0,
        1.0,
        2.220446049250313e-16,
        0.0,
        0.0,
        0.0,
        0.0,
        1.0
      ],
      "name": "Sketchfab_model"
    },
    {
      "children": [
        2
      ],
      "name": "root"
    },
    {
      "children": [
        3
      ],
      "matrix": [
        1.0,
        0.0,
        0.0,
        0.0,
        0.0,
        2.220446049250313e-16,
        1.0,
        0.0,
        0.0,
        -1.0,
        2.220446049250313e-16,
        0.0,
        0.0,
        0.0,
        0.0,
        1.0
      ],
      "name": "GLTF_SceneRootNode"
    },
    {
      "children": [
        4,
        6,
        8,
        10,
        12,
        14,
        16,
        18,
        20,
        22
      ],
      "name": "node_0_68"
    },
    {
      "children": [
        5
      ],
      "name": "custom_vis_LIGHT_BEACON_03_mcx_VC_8"
    },
    {
      "mesh": 0,
      "name": "Object_5"
    },
    {
      "children": [
        7
      ],
      "name": "custom_vis_LIGHT_LANDING_00_mcx_VC_0_9"
    },
    {
      "mesh": 1,
      "name": "Object_7"
    },
    {
      "children": [
        9
      ],
      "name": "custom_vis_LIGHT_LANDING_00_mcx_VC_2_10"
    },
    {
      "mesh": 2,
      "name": "Object_9"
    },
    {
      "children": [
        11
      ],
      "name": "custom_vis_LIGHT_TAXI_04_mcx_VC_0_11"
    },
    {
      "mesh": 3,
      "name": "Object_11"
    },
    {
      "children": [
        13
      ],
      "name": "custom_vis_LIGHT_TAXI_04_mcx_VC_1_12"
    },
    {
      "mesh": 4,
      "name": "Object_13"
    },
    {
      "children": [
        15
      ],
      "name": "node_28_13"
    },
    {
      "mesh": 5,
      "name": "Object_15"
    },
    {
      "children": [
        17
      ],
      "name": "node_29_14"
    },
    {
      "mesh": 6,
      "name": "Object_17"
    },
    {
      "children": [
        19
      ],
      "name": "node_30_15"
    },
    {
      "mesh": 7,
      "name": "Object_19"
    },
    {
      "children": [
        21
      ],
      "name": "node_31_16"
    },
    {
      "mesh": 8,
      "name": "Object_21"
    },
    {
      "children": [
        23
      ],
      "name": "node_32_17"
    },
    {
      "mesh": 9,
      "name": "Object_23"
    }
  ],
  "samplers": [
    {
      "magFilter": 9729,
      "minFilter": 9987,
      "wrapS": 10497,
      "wrapT": 10497
    }
  ],
  "scene": 0,
  "scenes": [
    {
      "name": "Sketchfab_Scene",
      "nodes": [
        0
      ]
    }
  ],
  "textures": [
    {
      "sampler": 0,
      "source": 0
    }
  ]
}
